<?xml version="1.0" encoding="utf-8"?>
<!-- Generator: Adobe Illustrator 27.0.0, SVG Export Plug-In . SVG Version: 6.00 Build 0)  -->
<svg version="1.1" id="Layer_1" xmlns="http://www.w3.org/2000/svg"
	xmlns:xlink="http://www.w3.org/1999/xlink" x="0px" y="0px"
	viewBox="0 0 3763.5 842.3" style="enable-background:new 0 0 3763.5 842.3;" xml:space="preserve">
<style type="text/css">
	.st0{fill:#003399;}
	.st1{fill:#FFFFFF;}
	
		.st2{clip-path:url(#SVGID_00000017517965804122867800000004091490880476554431_);fill-rule:evenodd;clip-rule:evenodd;fill:#FFCC00;}
</style>
<g>
	<rect x="-2.6" class="st0" width="842" height="842"/>
	<rect x="29.5" y="32.1" class="st1" width="777.7" height="777.7"/>
	<rect x="40.7" y="43.3" class="st0" width="755.4" height="755.4"/>
	<g>
		<defs>
			<rect id="SVGID_1_" x="-2.6" width="842" height="842"/>
		</defs>
		<clipPath id="SVGID_00000045578939132557284820000008259332009456572853_">
			<use xlink:href="#SVGID_1_"  style="overflow:visible;"/>
		</clipPath>
		
			<path style="clip-path:url(#SVGID_00000045578939132557284820000008259332009456572853_);fill-rule:evenodd;clip-rule:evenodd;fill:#FFCC00;" d="
			M261.9,690.8c-42.3-58.5-72.2-110.2-79.5-167.7c-4.7-36.8,17.4-68,44.1-97.1c16.4-17.9,34.3-35.2,52.9-51.9
			c83.5-74.9,107.6-125.7,106.9-223c19.1,59.5,23.5,120.4,21.3,181.3c-2.2,62.6,4.9,126.8-31.5,185.7
			C341.5,574.2,303.2,628.8,261.9,690.8"/>
		
			<path style="clip-path:url(#SVGID_00000045578939132557284820000008259332009456572853_);fill-rule:evenodd;clip-rule:evenodd;fill:#FFCC00;" d="
			M574.9,690.8c42.3-58.5,72.2-110.2,79.5-167.7c4.7-36.8-17.4-68-44.1-97.1c-16.4-17.9-34.2-35.2-52.8-51.9
			c-83.5-74.9-107.6-125.7-106.9-223c-19.1,59.5-23.5,120.4-21.3,181.3c2.2,62.6-4.9,126.8,31.5,185.7
			C495.3,574.2,533.6,628.8,574.9,690.8"/>
	</g>
	<g>
		<path d="M1149,684.5h-22.2l-6.4-19.8h-32.1l-6.4,19.8h-22.1l32.9-89h24.1L1149,684.5z M1115.7,649.3l-9.7-29.9
			c-0.7-2.2-1.2-4.9-1.5-8h-0.5c-0.2,2.6-0.7,5.2-1.6,7.8l-9.8,30.2H1115.7z"/>
		<path d="M1174.1,681.1v-19.9c3.7,3,7.6,5.3,11.9,6.8c4.3,1.5,8.6,2.3,13,2.3c2.6,0,4.8-0.2,6.7-0.7c1.9-0.5,3.5-1.1,4.8-1.9
			c1.3-0.8,2.2-1.8,2.9-2.9c0.6-1.1,0.9-2.3,0.9-3.6c0-1.7-0.5-3.3-1.5-4.7c-1-1.4-2.4-2.6-4.1-3.8c-1.7-1.2-3.8-2.3-6.2-3.4
			c-2.4-1.1-5-2.2-7.8-3.3c-7.1-2.9-12.3-6.4-15.8-10.6c-3.5-4.2-5.2-9.2-5.2-15.1c0-4.6,0.9-8.6,2.8-11.9c1.9-3.3,4.5-6.1,7.7-8.2
			c3.3-2.2,7-3.7,11.3-4.7c4.3-1,8.8-1.5,13.6-1.5c4.7,0,8.9,0.3,12.5,0.8s7,1.4,10,2.6v18.6c-1.5-1-3.2-1.9-4.9-2.7
			c-1.8-0.8-3.6-1.4-5.5-2c-1.9-0.5-3.8-0.9-5.6-1.1c-1.9-0.2-3.6-0.4-5.3-0.4c-2.3,0-4.4,0.2-6.3,0.7c-1.9,0.4-3.5,1-4.8,1.8
			c-1.3,0.8-2.3,1.7-3,2.8c-0.7,1.1-1.1,2.3-1.1,3.7c0,1.5,0.4,2.8,1.2,4c0.8,1.2,1.9,2.3,3.4,3.4c1.5,1.1,3.3,2.1,5.4,3.1
			c2.1,1,4.5,2.1,7.1,3.1c3.6,1.5,6.9,3.1,9.7,4.7c2.9,1.7,5.3,3.6,7.4,5.7c2.1,2.1,3.6,4.5,4.7,7.2c1.1,2.7,1.6,5.9,1.6,9.5
			c0,5-1,9.1-2.9,12.5c-1.9,3.4-4.5,6.1-7.8,8.2c-3.3,2.1-7.1,3.6-11.4,4.5c-4.3,0.9-8.9,1.4-13.8,1.4c-5,0-9.7-0.4-14.1-1.2
			C1181.3,684,1177.4,682.7,1174.1,681.1z"/>
		<path d="M1322.5,684.5h-53.8v-89h20.3v72.8h33.5V684.5z"/>
		<path d="M1377.5,681.1v-19.9c3.7,3,7.6,5.3,11.9,6.8c4.3,1.5,8.6,2.3,13,2.3c2.6,0,4.8-0.2,6.7-0.7c1.9-0.5,3.5-1.1,4.8-1.9
			c1.3-0.8,2.2-1.8,2.9-2.9c0.6-1.1,0.9-2.3,0.9-3.6c0-1.7-0.5-3.3-1.5-4.7c-1-1.4-2.4-2.6-4.1-3.8c-1.7-1.2-3.8-2.3-6.2-3.4
			c-2.4-1.1-5-2.2-7.8-3.3c-7.1-2.9-12.3-6.4-15.8-10.6c-3.5-4.2-5.2-9.2-5.2-15.1c0-4.6,0.9-8.6,2.8-11.9c1.9-3.3,4.5-6.1,7.7-8.2
			c3.3-2.2,7-3.7,11.3-4.7c4.3-1,8.8-1.5,13.6-1.5c4.7,0,8.9,0.3,12.5,0.8c3.6,0.6,7,1.4,10,2.6v18.6c-1.5-1-3.2-1.9-4.9-2.7
			c-1.8-0.8-3.6-1.4-5.5-2c-1.9-0.5-3.8-0.9-5.6-1.1c-1.9-0.2-3.6-0.4-5.3-0.4c-2.3,0-4.4,0.2-6.3,0.7c-1.9,0.4-3.5,1-4.8,1.8
			c-1.3,0.8-2.3,1.7-3,2.8c-0.7,1.1-1.1,2.3-1.1,3.7c0,1.5,0.4,2.8,1.2,4c0.8,1.2,1.9,2.3,3.4,3.4c1.5,1.1,3.3,2.1,5.4,3.1
			c2.1,1,4.5,2.1,7.1,3.1c3.6,1.5,6.9,3.1,9.7,4.7c2.9,1.7,5.3,3.6,7.4,5.7c2.1,2.1,3.6,4.5,4.7,7.2c1.1,2.7,1.6,5.9,1.6,9.5
			c0,5-1,9.1-2.9,12.5c-1.9,3.4-4.5,6.1-7.8,8.2c-3.3,2.1-7.1,3.6-11.4,4.5c-4.3,0.9-8.9,1.4-13.8,1.4c-5,0-9.7-0.4-14.1-1.2
			C1384.6,684,1380.7,682.7,1377.5,681.1z"/>
		<path d="M1526.2,684.5H1472v-89h52.1v16.3h-31.8v19.8h29.5v16.3h-29.5v20.4h33.8V684.5z"/>
		<path d="M1623.5,681.3c-6.6,3.1-15.2,4.7-25.8,4.7c-13.9,0-24.8-4-32.7-12c-7.9-8-11.9-18.7-11.9-32.1c0-14.2,4.5-25.8,13.4-34.6
			c8.9-8.9,20.5-13.3,34.7-13.3c8.8,0,16.3,1.1,22.3,3.3v19.3c-6-3.6-12.9-5.3-20.7-5.3c-8.5,0-15.3,2.6-20.5,7.9
			c-5.2,5.3-7.8,12.4-7.8,21.4c0,8.6,2.5,15.5,7.4,20.6c4.9,5.1,11.5,7.7,19.8,7.7c7.9,0,15.2-1.9,21.8-5.7V681.3z"/>
		<path d="M1731,645.9c0,26.7-12.6,40.1-37.9,40.1c-24.5,0-36.8-13.1-36.8-39.2v-51.4h20.4v51.6c0,14.4,5.7,21.6,17.1,21.6
			c11.2,0,16.8-7,16.8-20.9v-52.4h20.4V645.9z"/>
		<path d="M1844.5,684.5h-23.4l-14-22.9c-1.1-1.7-2.1-3.3-3-4.7c-1-1.4-1.9-2.5-2.9-3.5c-1-1-2-1.7-3.1-2.2
			c-1.1-0.5-2.2-0.8-3.5-0.8h-5.5v34.1h-20.3v-89h32.3c21.9,0,32.9,8.1,32.9,24.2c0,3.1-0.5,6-1.4,8.6c-1,2.6-2.3,5-4.1,7.1
			c-1.8,2.1-3.9,3.9-6.4,5.5c-2.5,1.5-5.3,2.7-8.3,3.6v0.2c1.3,0.4,2.6,1.1,3.9,2c1.3,0.9,2.5,2,3.7,3.3c1.2,1.2,2.3,2.6,3.4,4
			c1.1,1.4,2,2.8,2.9,4.2L1844.5,684.5z M1789,610.5v24.8h8.8c4.4,0,7.9-1.2,10.5-3.7c2.7-2.5,4-5.6,4-9.4c0-7.8-4.7-11.7-14.2-11.7
			H1789z"/>
		<path d="M1891.3,684.5H1871v-89h20.3V684.5z"/>
		<path d="M1993.4,611.8h-25.8v72.7h-20.4v-72.7h-25.6v-16.3h71.8V611.8z"/>
		<path d="M2044,684.5h-20.3v-89h20.3V684.5z"/>
		<path d="M2136.8,684.5h-54.2v-89h52.1v16.3h-31.8v19.8h29.5v16.3h-29.5v20.4h33.8V684.5z"/>
		<path d="M2165.2,681.1v-19.9c3.7,3,7.6,5.3,11.9,6.8c4.3,1.5,8.6,2.3,13,2.3c2.6,0,4.8-0.2,6.7-0.7c1.9-0.5,3.5-1.1,4.8-1.9
			c1.3-0.8,2.2-1.8,2.9-2.9c0.6-1.1,0.9-2.3,0.9-3.6c0-1.7-0.5-3.3-1.5-4.7c-1-1.4-2.4-2.6-4.1-3.8c-1.7-1.2-3.8-2.3-6.2-3.4
			c-2.4-1.1-5-2.2-7.8-3.3c-7.1-2.9-12.3-6.4-15.8-10.6c-3.5-4.2-5.2-9.2-5.2-15.1c0-4.6,0.9-8.6,2.8-11.9c1.9-3.3,4.5-6.1,7.7-8.2
			c3.3-2.2,7-3.7,11.3-4.7c4.3-1,8.8-1.5,13.6-1.5c4.7,0,8.9,0.3,12.5,0.8s7,1.4,10,2.6v18.6c-1.5-1-3.2-1.9-4.9-2.7
			c-1.8-0.8-3.6-1.4-5.5-2c-1.9-0.5-3.8-0.9-5.6-1.1c-1.9-0.2-3.6-0.4-5.3-0.4c-2.3,0-4.4,0.2-6.3,0.7c-1.9,0.4-3.5,1-4.8,1.8
			c-1.3,0.8-2.3,1.7-3,2.8c-0.7,1.1-1.1,2.3-1.1,3.7c0,1.5,0.4,2.8,1.2,4c0.8,1.2,1.9,2.3,3.4,3.4c1.5,1.1,3.3,2.1,5.4,3.1
			c2.1,1,4.5,2.1,7.1,3.1c3.6,1.5,6.9,3.1,9.7,4.7c2.9,1.7,5.3,3.6,7.4,5.7c2.1,2.1,3.6,4.5,4.7,7.2c1.1,2.7,1.6,5.9,1.6,9.5
			c0,5-1,9.1-2.9,12.5c-1.9,3.4-4.5,6.1-7.8,8.2c-3.3,2.1-7.1,3.6-11.4,4.5c-4.3,0.9-8.9,1.4-13.8,1.4c-5,0-9.7-0.4-14.1-1.2
			C2172.3,684,2168.4,682.7,2165.2,681.1z"/>
		<path d="M2353.4,681.3c-6.6,3.1-15.2,4.7-25.8,4.7c-13.9,0-24.8-4-32.7-12c-7.9-8-11.9-18.7-11.9-32.1c0-14.2,4.5-25.8,13.4-34.6
			c8.9-8.9,20.5-13.3,34.7-13.3c8.8,0,16.3,1.1,22.3,3.3v19.3c-6-3.6-12.9-5.3-20.7-5.3c-8.5,0-15.3,2.6-20.5,7.9
			c-5.2,5.3-7.8,12.4-7.8,21.4c0,8.6,2.5,15.5,7.4,20.6c4.9,5.1,11.5,7.7,19.8,7.7c7.9,0,15.2-1.9,21.8-5.7V681.3z"/>
		<path d="M2427.7,686c-12.9,0-23.5-4.1-31.6-12.4c-8.1-8.3-12.2-19.1-12.2-32.4c0-14.1,4.1-25.5,12.4-34.1c8.3-8.7,19.2-13,32.9-13
			c12.9,0,23.3,4.2,31.3,12.5c8,8.3,11.9,19.3,11.9,32.9c0,14-4.1,25.3-12.4,33.8C2451.7,681.7,2440.9,686,2427.7,686z
			 M2428.5,611.2c-7.1,0-12.8,2.6-17,7.9c-4.2,5.3-6.3,12.3-6.3,20.9c0,8.8,2.1,15.8,6.3,20.9c4.2,5.1,9.7,7.7,16.5,7.7
			c7,0,12.6-2.5,16.7-7.5c4.1-5,6.2-11.9,6.2-20.8c0-9.2-2-16.4-6-21.5C2440.9,613.8,2435.5,611.2,2428.5,611.2z"/>
		<path d="M2511.1,686c-3.3,0-6-1-8.2-3c-2.2-2-3.3-4.4-3.3-7.3c0-3,1.1-5.4,3.4-7.3c2.2-1.9,5-2.9,8.4-2.9c3.4,0,6.2,1,8.3,2.9
			c2.2,1.9,3.2,4.4,3.2,7.3c0,3-1.1,5.5-3.3,7.4S2514.7,686,2511.1,686z"/>
		<path d="M2578,668.8l-9.3,31.4h-15.5l6.4-31.4H2578z"/>
		<path d="M2700.7,684.5h-53.8v-89h20.3v72.8h33.5V684.5z"/>
		<path d="M2789.8,611.8H2764v72.7h-20.4v-72.7h-25.6v-16.3h71.8V611.8z"/>
		<path d="M2823.8,684.5v-89h32c32.1,0,48.1,14.5,48.1,43.4c0,13.9-4.4,24.9-13.1,33.2c-8.8,8.3-20.4,12.4-35,12.4H2823.8z
			 M2844.2,611.8v56.4h10.1c8.8,0,15.7-2.6,20.8-7.8c5-5.2,7.5-12.3,7.5-21.3c0-8.5-2.5-15.2-7.5-20c-5-4.9-12-7.3-20.9-7.3H2844.2z
			"/>
		<path d="M2941.4,686c-3.3,0-6-1-8.2-3c-2.2-2-3.3-4.4-3.3-7.3c0-3,1.1-5.4,3.4-7.3c2.2-1.9,5-2.9,8.4-2.9c3.4,0,6.2,1,8.3,2.9
			c2.2,1.9,3.2,4.4,3.2,7.3c0,3-1.1,5.5-3.3,7.4S2945,686,2941.4,686z"/>
	</g>
	<g>
		<path d="M1135.7,412.6c0-1.9-0.2-3.4-0.6-4.4c-0.4-1-1.1-1.8-1.9-2.6c-0.9-0.8-1.5-1.5-1.8-2c-0.3-0.5-0.5-1.5-0.5-2.8
			c0.2-3.4,3.2-5.1,9-5.1c0.8,0,2,0,3.8,0.1c1.7,0.1,3,0.1,3.9,0.1h7.2c3.2,0,5.5,0.3,7.1,0.9c1.5,0.6,2.4,1.9,2.5,4
			c0,1.5-0.2,2.6-0.6,3.3c-0.4,0.7-1.1,1.4-2,2.1c-0.9,0.8-1.6,1.5-2,2.2c-0.4,0.7-0.7,1.9-0.7,3.6v43.5c0,8.2-1.7,14.7-5,19.6
			c-3.3,4.9-8,8.3-14.1,10.3c-6,2-13.4,3-22.1,3c-8.9-0.1-16.4-1.2-22.6-3.2c-6.2-2.1-11-5.6-14.4-10.6c-3.4-5-5.1-11.6-5.1-19.8
			l1.4-37.3c0-1.5-0.4-2.8-1.3-3.7c-0.9-0.9-2.2-1.9-3.9-2.9c-1.7-1-3-1.8-3.7-2.4c-0.7-0.6-1.1-1.5-1.1-2.8c0-2.8,2.5-5.1,7.4-7.1
			c4.9-2,10.7-3,17.2-3c5.9,0.5,8.9,6.6,8.9,18.4l-1.6,40.7c0,6.7,1.6,11.6,4.8,14.7c3.2,3.1,8,4.6,14.5,4.6
			c6.7-0.3,11.3-2.1,13.8-5.4c2.5-3.3,3.7-8.6,3.7-16V412.6z"/>
		<path d="M1235.7,465.2c0.8-1.9,1.2-4.5,1.2-7.6c0-6.1-2-10.7-5.9-13.8c-2.1-1.6-7.8-3.1-17.2-4.4c-9.3-1.3-16-2.4-19.9-3.1
			c-3.9-0.8-8-2.7-12.2-5.7c-4.2-3-6.3-7.5-6.3-13.6c0.3-5.6,3.3-10.5,8.9-14.8c5.6-4.3,12.3-6.6,19.9-6.8c6.8,0,13.6,0.6,20.3,1.7
			c6.7,1.2,11.5,1.8,14.1,2c1.9,0,3.3-0.2,4.3-0.5c1-0.3,2-0.8,2.8-1.5c0.9-0.7,1.6-1.1,2.3-1.4c1.6,0,3.1,0.7,4.3,2.1
			c1.3,1.4,2.1,3.3,2.4,5.7c0,7.2-5,10.8-14.9,10.8c-2-0.3-4.9-1-8.6-1.9c-3.7-1-7-1.7-9.8-2.2c-2.8-0.5-6-0.7-9.5-0.7
			c-4,0-7.4,0.7-10.2,2.2c-2.8,1.5-4.4,3.7-4.7,6.6c0,2.9,1.7,4.7,5.2,5.5c3.5,0.8,10.5,1.9,21,3.4c10.5,1.4,18.1,3.2,22.6,5.1
			c4.7,2.1,8.1,5.2,10.3,9.4c2.1,4.2,3.2,8.9,3.2,14.1c0,6.1-1.2,11.3-3.5,15.6c-5.8,11.7-20.3,17.5-43.5,17.5
			c-8.6-0.1-16.3-1.9-23-5.1c-6.7-3.3-10.1-8.3-10.1-15.1c0.1-3.3,1.3-6.2,3.4-8.5c2.2-2.3,5.2-3.5,9.1-3.5c2.8,0.1,5.1,1,6.9,2.5
			c1.8,1.6,2.6,3.4,2.6,5.5c0,1.8-0.5,3.4-1.6,4.8c0,1.8,1.7,3.3,5.2,4.6c3.4,1.3,7,1.9,10.6,1.9
			C1226.1,476.1,1232.7,472.5,1235.7,465.2z"/>
		<path d="M1249.2,378.5c-0.9,0-3.3-0.7-7.2-2c-4-1.3-8.6-2.4-13.8-3.3c-5.3-0.9-12-1.3-20.3-1.3c-7.5,0-13.8,0.5-19,1.4
			c-5.2,1-9.9,2.1-14.1,3.4c-4.2,1.3-6.9,2-8,2c-1.2,0-2.2-0.3-2.8-0.9c-0.8-0.6-1.2-1.6-1.2-3.2c0-2.2,0.7-4.5,2.2-7
			c1.4-2.5,3.2-4.3,5.3-5.5c4.1-2.4,15.8-3.7,35.2-3.7c17.4,0,29.8,0.9,37.2,2.8c2.2,0.5,4.3,2.2,6.1,4.9c1.8,2.8,2.8,5.4,2.8,8
			C1251.3,376.4,1250.6,377.9,1249.2,378.5z"/>
		<path d="M1359.7,444.3v11.2c0,12.2-3.4,20.7-10.3,25.7c-6.9,5-17.1,7.4-30.6,7.4c-13.6-0.1-24.1-2.7-31.4-7.9
			c-7.3-5.1-11-13.8-11-26l1.4-37.3c0-1.5-0.4-2.8-1.3-3.7c-0.9-0.9-2.2-1.9-3.9-2.9c-1.7-1-3-1.8-3.7-2.4c-0.7-0.6-1.1-1.5-1.1-2.8
			c0-2.8,2.5-5.1,7.4-7.1c4.9-2,10.7-3,17.2-3c5.9,0.5,8.9,6.6,8.9,18.4l-1.6,40.7c0,6.7,1.6,11.6,4.7,14.7c3.1,3.1,8,4.6,14.6,4.6
			c6.7-0.2,11.3-2,13.7-5.3c2.5-3.3,3.7-8.7,3.7-16.1v-3.4h0.1c0,0-0.8,0.1-2.4,0.3c-1.9,0.2-3.9,0.3-6,0.3c-3.1,0-6.2-0.3-9.3-0.9
			c-7.8-1.6-11.9-6-12.1-13.1c0-2.8,0.9-5.2,2.7-7.2c1.8-2,4.5-3,8-3c1.1,0.2,1.7,1.4,1.9,3.6c0.2,2.2,0.7,4,1.6,5.4
			c0.9,1.4,3,2.2,6.5,2.5c2.3,0,4.5-0.2,6.5-0.5c1.7-0.3,2.6-0.4,2.6-0.4v-23.9c0-1.9-0.2-3.4-0.6-4.4c-0.4-1-1.1-1.8-1.9-2.6
			c-0.9-0.8-1.5-1.5-1.8-2c-0.3-0.5-0.5-1.5-0.5-2.8c0.2-3.4,3.2-5.1,9.1-5.1c0.8,0,2,0,3.7,0.1c1.7,0.1,3,0.1,3.9,0.1h7.2
			c3.1,0,5.5,0.3,7,0.9c1.6,0.6,2.4,1.9,2.5,4c0,1.5-0.2,2.6-0.6,3.3c-0.4,0.7-1.1,1.4-2,2.1c-0.9,0.8-1.6,1.5-2,2.2
			c-0.4,0.7-0.7,1.9-0.7,3.6v19.6c0.1,0,1.4-0.8,3.9-2.5c2.6-1.7,4.6-3.4,6.1-5.1c0.3-0.3,0.6-0.4,0.9-0.4c0.8,0,1.5,0.8,2,2.3
			c0.5,1.6,0.8,3.3,0.8,5.3c0,2.1-0.3,3.6-0.9,4.4c-1.2,2.1-3.2,3.9-6.1,5.5C1363.6,442.6,1361.3,443.7,1359.7,444.3z"/>
		<path d="M1340.2,357.6c1.2,2.7,5.9,4.1,13.9,4.1c8.3,0,14.9-1.1,20.1-3.4c2.5-1.2,4.7-2.4,6.4-3.6c1.7-1.2,3.5-2.5,5.3-4
			c1.8-1.5,3.2-2.5,4.1-3.2c1-0.7,1.9-1,2.7-1c1.1,0.5,1.6,3.4,1.6,8.8c0,3.4-0.4,5.7-1.2,6.9c-1,1.6-3.4,3.4-7,5.4
			c-3.7,2-8.5,3.7-14.4,5.2c-5.9,1.4-12.6,2.2-20.2,2.2c-3,0-5.2-0.1-6.8-0.2c-7.5-0.5-14.7-2.2-21.6-5.2
			c-6.9-2.9-10.3-6.9-10.3-11.9c0-0.5,0.2-1.3,0.5-2.5c0.8-2.9,3.4-5.3,7.8-7.1c4.4-1.8,8.8-2.7,13.2-2.7c3.2,0,5.4,0.5,6.5,1.6
			c0.8,0.8,1.1,1.6,1.1,2.5c0,0.6-0.3,1.8-0.9,3.5C1340.5,354.6,1340.2,356.2,1340.2,357.6z"/>
		<path d="M1387.8,417.6c0-1.5-0.4-2.8-1.3-3.7c-0.9-0.9-2.2-1.9-3.9-2.9c-1.7-1-3-1.8-3.7-2.4c-0.7-0.6-1.1-1.5-1.1-2.8
			c0-2.8,2.5-5.1,7.4-7.1c4.9-2,10.7-3,17.2-3c5.9,0.5,8.9,6.6,8.9,18.4v9l-2.1,9.7c0-0.4,0.7-2.3,2.2-5.6c1.5-3.3,3.5-7,6.1-11.2
			c2.6-4.1,5.5-7.8,8.7-10.9c6.5-6.4,13.8-9.7,21.9-9.7c2.2,0,3.9,0.1,5.1,0.3c12.6,1.2,18.9,11.5,18.9,31v45.1c0,1.8,0.2,3,0.6,3.8
			c0.4,0.8,1,1.4,1.9,2c0.9,0.6,1.6,1.2,2,1.9c0.5,0.7,0.7,1.9,0.8,3.6c0,2-0.8,3.3-2.3,3.9c-1.5,0.6-3.9,0.9-7.2,0.9h-7.2
			c-0.9,0-2.2,0-3.9,0.1c-1.7,0.1-3,0.1-3.7,0.1c-3,0-5.2-0.3-6.8-1c-1.5-0.7-2.3-2-2.3-4c0-1.4,0.2-2.4,0.6-3c0.4-0.6,1-1.3,1.8-2
			c0.8-0.7,1.4-1.6,1.8-2.5c0.4-0.9,0.6-2.4,0.6-4.3v-43.3c0-5.2-0.5-9-1.6-11.5c-1.1-2.5-3.3-3.7-6.6-3.7c-6.7,1-14,10.1-21.9,27.1
			c-5.1,11.2-7.7,19.6-7.7,25.3v6.4c0,1.8,0.2,3.1,0.6,3.9c0.4,0.8,1.1,1.4,1.9,2c0.9,0.6,1.5,1.2,2,1.9c0.5,0.7,0.7,1.9,0.8,3.5
			c0,2-0.8,3.3-2.3,3.9c-1.5,0.6-3.9,0.9-7.2,0.9h-7.2c-0.9,0-2.2,0-3.9,0.1c-1.7,0.1-3,0.1-3.7,0.1c-6.1,0-9.1-1.7-9.1-5.1
			c0-1.4,0.2-2.4,0.6-3c0.4-0.6,1-1.3,1.8-2c0.8-0.7,1.4-1.6,1.8-2.5c0.4-0.9,0.6-2.4,0.6-4.3V417.6z"/>
		<path d="M1551.6,428.2c-7.2,0.2-13.4,4.1-18.6,11.5c-5.7,8.3-8.6,17.7-8.6,28.3v3.9c0,1.8,0.2,3.1,0.6,3.9c0.4,0.8,1.1,1.4,1.9,2
			c0.9,0.6,1.5,1.2,2,1.9c0.5,0.7,0.7,1.9,0.8,3.5c0,2-0.8,3.3-2.3,3.9c-1.6,0.6-4,0.9-7.2,0.9h-7.2c-0.9,0-2.2,0-3.9,0.1
			c-1.7,0.1-3,0.1-3.8,0.1c-6.1,0-9.1-1.7-9.1-5.1c0-1.4,0.2-2.4,0.6-3c0.4-0.6,1-1.3,1.8-2c0.8-0.7,1.4-1.6,1.8-2.5
			c0.4-0.9,0.6-2.4,0.6-4.3v-53.8c0-1.5-0.4-2.8-1.3-3.7c-0.9-0.9-2.2-1.9-3.9-2.9c-1.7-1-3-1.8-3.7-2.4c-0.7-0.6-1.1-1.5-1.1-2.8
			c0-1.8,1.2-3.5,3.6-5c2.4-1.6,5.5-2.8,9.4-3.7c3.9-0.9,8-1.4,12.1-1.4c5.9,0.5,8.9,6.6,8.9,18.4v8.5l-3.7,16.4
			c0.4-1.6,1.5-4,3.3-7.3c1.8-3.3,4.7-6.4,8.6-9.3c5-3.7,11.1-5.6,18.4-5.6c-3.2-0.1-6-1.1-8.4-2.9c-2.4-1.8-3.7-4.1-3.7-6.8
			c0-4.3,2.2-7.4,6.7-9.2c4.5-1.8,9.9-2.7,16.3-2.7c15.8,0,23.8,3.9,24.2,11.7c0,4.1-1.6,6.9-4.9,8.5c-3.3,1.6-6.1,2.4-8.5,2.4
			c0.7,0,2,0.5,3.9,1.6c1.9,1.1,3.5,2.8,4.9,5.1c2.2,3.8,3.3,9.3,3.3,16.5v30.8c0,1.8,0.2,3,0.6,3.8c0.4,0.8,1,1.4,1.9,2
			c0.9,0.6,1.6,1.2,2,1.9c0.5,0.7,0.7,1.9,0.8,3.6c0,2-0.8,3.3-2.3,3.9c-1.6,0.6-4,0.9-7.2,0.9h-7.2c-0.9,0-2.2,0-3.9,0.1
			c-1.7,0.1-3,0.1-3.7,0.1c-6.1,0-9.1-1.7-9.1-5.1c0-1.4,0.2-2.4,0.6-3c0.4-0.6,1-1.3,1.8-2c0.8-0.7,1.4-1.6,1.8-2.5
			c0.4-0.9,0.6-2.4,0.6-4.3v-30.4c0-4.9-0.8-8.2-2.4-10.1C1558,429.1,1555.3,428.2,1551.6,428.2z"/>
		<path d="M1666.4,426.8c0-5.3-1.4-9.6-4.1-12.9c-2.7-3.3-8.3-5-16.7-5c-6.2,0.2-10.2,0.9-11.8,2.3c-1.7,1.3-3.7,3.7-6.2,7.1
			c-2.5,3.4-5.5,5.3-9.1,5.8c-3.1,0-5.6-0.9-7.5-2.7c-1.8-1.8-2.8-4-2.8-6.5c0-1.9,0.5-3.6,1.4-5.3c2.8-4.9,7.5-8.5,14.1-10.8
			c6.6-2.3,13.9-3.5,21.7-3.5c29.5,0,44.2,9.9,44.2,29.7v39.1c0,4.5,0.3,7.8,1,10.1c0.3,0.8,1,1.6,2.2,2.4c1.1,0.8,2,1.4,2.4,2
			c0.5,0.6,0.7,1.6,0.7,3.2c0,2.4-1.1,4.1-3.2,5c-2.2,1-6.3,1.4-12.4,1.4c-3.8,0-6.6-0.3-8.6-1c-2-0.7-3.4-1.9-4.1-3.6
			c-0.8-1.7-1.2-4.3-1.2-7.8v-36.1c-2,0-6.1,0.5-12.4,1.4c-6.2,0.9-11.7,2.4-16.2,4.4c-6.2,2.7-9.3,7.6-9.3,14.5
			c0,3.3,0.8,6.2,2.4,8.7c1.6,2.5,3.6,3.7,5.9,3.7c2.2,0,4-0.6,5.4-1.7c1.4-1.1,2.5-1.8,3.3-2c1.6-0.3,2.6-0.4,3-0.4
			c2.2,0,4,0.7,5.2,2.1c1.2,1.4,1.8,3.1,1.8,5.3c0,1.5-0.2,2.8-0.7,3.9c-1.2,2.8-3.7,4.9-7.6,6.5c-3.9,1.6-8.3,2.4-13.1,2.5
			c-5.4,0-10.3-1-14.7-2.9c-4.4-1.9-7.9-4.9-10.5-8.8c-2.6-4-3.9-8.8-3.9-14.5c0-2.1,0.1-3.8,0.2-5.1c1.1-7.5,4.2-13.1,9.4-16.8
			c5.2-3.7,12.1-6.8,20.9-9.2c5.2-1.5,10.8-2.6,17-3.3C1658.5,427.2,1663.2,426.8,1666.4,426.8z"/>
		<path d="M1668.2,357.6c1.2,2.7,5.9,4.1,13.9,4.1c8.3,0,14.9-1.1,20.1-3.4c2.5-1.2,4.7-2.4,6.4-3.6c1.7-1.2,3.5-2.5,5.3-4
			c1.8-1.5,3.2-2.5,4.1-3.2c1-0.7,1.9-1,2.7-1c1.1,0.5,1.6,3.4,1.6,8.8c0,3.4-0.4,5.7-1.2,6.9c-1,1.6-3.4,3.4-7,5.4
			c-3.7,2-8.5,3.7-14.4,5.2c-5.9,1.4-12.6,2.2-20.2,2.2c-3,0-5.2-0.1-6.8-0.2c-7.5-0.5-14.7-2.2-21.6-5.2
			c-6.9-2.9-10.3-6.9-10.3-11.9c0-0.5,0.2-1.3,0.5-2.5c0.8-2.9,3.4-5.3,7.8-7.1c4.4-1.8,8.8-2.7,13.2-2.7c3.2,0,5.4,0.5,6.5,1.6
			c0.8,0.8,1.1,1.6,1.1,2.5c0,0.6-0.3,1.8-0.9,3.5C1668.5,354.6,1668.2,356.2,1668.2,357.6z"/>
		<path d="M1793.1,471.9c0,1.8,0.2,3,0.6,3.8c0.4,0.8,1,1.4,1.9,2c0.9,0.6,1.6,1.2,2.1,1.9c0.5,0.7,0.8,1.9,0.8,3.6
			c0,2-0.8,3.3-2.3,3.9c-1.6,0.6-4,0.9-7.2,0.9h-7.2c-0.8,0-2.1,0-3.9,0.1c-1.8,0.1-3,0.1-3.8,0.1c-3,0-5.2-0.3-6.8-1
			c-1.5-0.7-2.3-2-2.3-4c0-1.4,0.2-2.4,0.6-3c0.4-0.6,1-1.3,1.8-2c0.8-0.7,1.4-1.6,1.8-2.5c0.4-0.9,0.6-2.4,0.6-4.3v-43.3
			c0-4.4-0.3-7.8-0.9-10.4c-0.6-2.5-2.2-4.7-4.9-6.4c-2.7-1.7-6.9-2.6-12.8-2.8c-3.8,0-7.2,0.4-10.2,1.3c-3,0.9-5.2,2-6.8,3.3
			c-1.6,1.3-2.3,2.6-2.3,3.8c0,0.7,0.3,1.3,1,1.8c0.7,0.5,1.9,1.3,3.7,2.3c1.8,1,3.2,2,4.1,2.8c0.9,0.9,1.4,1.9,1.4,3
			c0,1.3-1.2,3-3.6,5.1c-2.4,2.1-4.1,3.6-5,4.7c-0.9,1.1-1.4,2.9-1.4,5.4v29.7c0,1.8,0.2,3.1,0.6,3.9c0.4,0.8,1.1,1.4,1.9,2
			c0.9,0.6,1.5,1.2,2,1.9c0.5,0.7,0.7,1.9,0.8,3.5c0,2-0.8,3.3-2.3,3.9c-1.5,0.6-3.9,0.9-7.2,0.9h-7.2c-0.9,0-2.2,0-3.9,0.1
			c-1.7,0.1-3,0.1-3.8,0.1c-3,0-5.2-0.3-6.8-1c-1.5-0.7-2.3-2-2.3-4c0-1.4,0.2-2.4,0.6-3c0.4-0.6,1-1.3,1.8-2
			c0.8-0.7,1.4-1.6,1.8-2.5c0.4-0.9,0.6-2.4,0.6-4.3v-26.9c0-3.4,0.7-6,2-7.9c1.3-1.8,3-3.6,5.1-5.3c2.1-1.7,3.1-3,3.1-3.9
			c0-0.9-1.3-2.1-4-3.5c-2.7-1.4-4.6-2.6-5.7-3.4c-1.1-0.8-1.7-2.1-1.7-4c0-4.8,4.6-9.9,13.7-15.2c7.8-4.5,17.9-6.7,30.2-6.7
			c11.7,0,21.1,2,28,6c6,3.6,9.7,7.4,11.2,11.3c1.5,3.9,2.2,8.8,2.2,14.6V471.9z"/>
		<path d="M1822.2,417.6c0-1.5-0.4-2.8-1.3-3.7c-0.9-0.9-2.2-1.9-3.9-2.9c-1.7-1-3-1.8-3.7-2.4c-0.7-0.6-1.1-1.5-1.1-2.8
			c0-2.8,2.5-5.1,7.4-7.1c4.9-2,10.7-3,17.2-3c5.9,0.5,8.9,6.6,8.9,18.4v9l-2.1,9.7c0-0.4,0.7-2.3,2.2-5.6c1.5-3.3,3.5-7,6.1-11.2
			c2.6-4.1,5.5-7.8,8.7-10.9c6.5-6.4,13.8-9.7,21.9-9.7c2.2,0,3.9,0.1,5.1,0.3c12.6,1.2,18.9,11.5,18.9,31v45.1c0,1.8,0.2,3,0.6,3.8
			c0.4,0.8,1,1.4,1.9,2c0.9,0.6,1.6,1.2,2,1.9c0.5,0.7,0.7,1.9,0.8,3.6c0,2-0.8,3.3-2.3,3.9c-1.5,0.6-3.9,0.9-7.2,0.9h-7.2
			c-0.9,0-2.2,0-3.9,0.1c-1.7,0.1-3,0.1-3.7,0.1c-3,0-5.2-0.3-6.8-1c-1.5-0.7-2.3-2-2.3-4c0-1.4,0.2-2.4,0.6-3c0.4-0.6,1-1.3,1.8-2
			c0.8-0.7,1.4-1.6,1.8-2.5c0.4-0.9,0.6-2.4,0.6-4.3v-43.3c0-5.2-0.5-9-1.6-11.5c-1.1-2.5-3.3-3.7-6.6-3.7c-6.7,1-14,10.1-21.9,27.1
			c-5.1,11.2-7.7,19.6-7.7,25.3v6.4c0,1.8,0.2,3.1,0.6,3.9c0.4,0.8,1.1,1.4,1.9,2c0.9,0.6,1.5,1.2,2,1.9c0.5,0.7,0.7,1.9,0.8,3.5
			c0,2-0.8,3.3-2.3,3.9c-1.5,0.6-3.9,0.9-7.2,0.9h-7.2c-0.9,0-2.2,0-3.9,0.1c-1.7,0.1-3,0.1-3.7,0.1c-6.1,0-9.1-1.7-9.1-5.1
			c0-1.4,0.2-2.4,0.6-3c0.4-0.6,1-1.3,1.8-2c0.8-0.7,1.4-1.6,1.8-2.5c0.4-0.9,0.6-2.4,0.6-4.3V417.6z"/>
		<path d="M1982.3,465.2c0.8-1.9,1.2-4.5,1.2-7.6c0-6.1-2-10.7-5.9-13.8c-2.1-1.6-7.8-3.1-17.2-4.4c-9.3-1.3-16-2.4-19.9-3.1
			c-3.9-0.8-8-2.7-12.2-5.7c-4.2-3-6.3-7.5-6.3-13.6c0.3-5.6,3.3-10.5,8.9-14.8c5.6-4.3,12.3-6.6,19.9-6.8c6.8,0,13.6,0.6,20.3,1.7
			c6.7,1.2,11.5,1.8,14.1,2c1.9,0,3.3-0.2,4.3-0.5c1-0.3,2-0.8,2.8-1.5c0.9-0.7,1.6-1.1,2.3-1.4c1.6,0,3.1,0.7,4.3,2.1
			c1.3,1.4,2.1,3.3,2.4,5.7c0,7.2-5,10.8-14.9,10.8c-2-0.3-4.9-1-8.6-1.9c-3.7-1-7-1.7-9.8-2.2c-2.8-0.5-6-0.7-9.5-0.7
			c-4,0-7.4,0.7-10.2,2.2c-2.8,1.5-4.4,3.7-4.7,6.6c0,2.9,1.7,4.7,5.2,5.5c3.5,0.8,10.5,1.9,21,3.4c10.5,1.4,18.1,3.2,22.6,5.1
			c4.7,2.1,8.1,5.2,10.3,9.4c2.1,4.2,3.2,8.9,3.2,14.1c0,6.1-1.2,11.3-3.5,15.6c-5.8,11.7-20.3,17.5-43.5,17.5
			c-8.6-0.1-16.3-1.9-23-5.1c-6.7-3.3-10.1-8.3-10.1-15.1c0.1-3.3,1.3-6.2,3.4-8.5c2.2-2.3,5.2-3.5,9.1-3.5c2.8,0.1,5.1,1,6.9,2.5
			c1.8,1.6,2.6,3.4,2.6,5.5c0,1.8-0.5,3.4-1.6,4.8c0,1.8,1.7,3.3,5.2,4.6c3.4,1.3,7,1.9,10.6,1.9
			C1972.7,476.1,1979.3,472.5,1982.3,465.2z"/>
		<path d="M1980.7,357.6c1.2,2.7,5.9,4.1,13.9,4.1c8.3,0,14.9-1.1,20.1-3.4c2.5-1.2,4.7-2.4,6.4-3.6c1.7-1.2,3.5-2.5,5.3-4
			c1.8-1.5,3.2-2.5,4.1-3.2c1-0.7,1.9-1,2.7-1c1.1,0.5,1.6,3.4,1.6,8.8c0,3.4-0.4,5.7-1.2,6.9c-1,1.6-3.4,3.4-7,5.4
			c-3.7,2-8.5,3.7-14.4,5.2c-5.9,1.4-12.6,2.2-20.2,2.2c-3,0-5.2-0.1-6.8-0.2c-7.5-0.5-14.7-2.2-21.6-5.2
			c-6.9-2.9-10.3-6.9-10.3-11.9c0-0.5,0.2-1.3,0.5-2.5c0.8-2.9,3.4-5.3,7.8-7.1c4.4-1.8,8.8-2.7,13.2-2.7c3.2,0,5.4,0.5,6.5,1.6
			c0.8,0.8,1.1,1.6,1.1,2.5c0,0.6-0.3,1.8-0.9,3.5C1981,354.6,1980.7,356.2,1980.7,357.6z"/>
		<path d="M2131,452.8c0,14-2.5,23.4-7.6,28.3c-5.1,4.9-10.7,7.4-16.8,7.4c-5.9,0-10.8-2.3-14.6-6.9c-3.8-4.6-6.7-10-8.7-16.2
			c-2-6.2-3.3-11.8-3.9-16.7c-0.7-5-1-8.1-1-9.5c0,3.7-0.5,9.3-1.5,16.6c-1,7.3-3.6,14.6-7.8,21.8c-4.2,7.2-10.4,10.8-18.6,10.8
			c-7.3,0-13.4-3.1-18.2-9.3c-4.8-6.2-7.3-15.3-7.4-27.3c0-4.6,0.3-10.5,0.9-17.6c0.6-7.1,0.9-12.9,0.9-17.2
			c-0.2-1.3-0.7-2.4-1.5-3.3c-0.9-0.9-2-1.8-3.6-2.8c-1.5-1-2.6-1.8-3.3-2.5c-0.6-0.7-1-1.7-1-2.9c0-2.9,2.5-5.3,7.4-7.1
			c4.9-1.8,10.5-2.8,16.8-2.8c6.4,0.3,9.5,5.6,9.5,15.8c0,4.3-0.3,10.5-1,18.3c-0.7,7.9-1.1,14.2-1.3,19c0,11.4,2.1,17,6.2,17
			c4.8,0,8.6-10.6,11.4-31.7c1.2-8.8,1.9-16.8,1.9-24.2c0-2-0.7-3.7-2.2-5.1c-1.5-1.4-2.2-2.6-2.2-3.7c0-2.4,1.2-3.8,3.6-4.4
			c2.4-0.6,5.7-0.9,9.9-0.9c4.2,0,7.5,0.3,9.9,0.9c2.4,0.6,3.5,2.1,3.5,4.4c0,1.2-0.7,2.5-2,3.8c-1.3,1.3-2,3-2,4.9
			c0.3,8.3,1.1,16.2,2.3,23.7c1.4,8.8,3.1,16.3,5.3,22.6c2.2,6.3,4.4,9.5,6.8,9.6c4.2,0,6.2-4.4,6.2-13.1v-40.2
			c0-1.9-0.2-3.4-0.6-4.4c-0.4-1-1.1-1.8-1.9-2.6s-1.5-1.5-1.8-2c-0.3-0.5-0.5-1.5-0.5-2.8c0.2-3.4,3.2-5.1,9.1-5.1
			c0.8,0,2,0,3.7,0.1c1.7,0.1,3,0.1,3.9,0.1h7.2c3.1,0,5.5,0.3,7,0.9c1.6,0.6,2.4,1.9,2.5,4c0,1.5-0.2,2.6-0.6,3.3
			c-0.4,0.7-1.1,1.4-2,2.1c-0.9,0.8-1.6,1.5-2,2.2c-0.4,0.7-0.7,1.9-0.7,3.6V452.8z"/>
		<path d="M2214.3,418.1c0-2.7-0.5-4.6-1.4-5.6c-0.9-1-2.4-2.3-4.4-3.8c-2-1.5-3.1-2.9-3.1-4.2c0.1-2,2.5-4,7-6c4.6-2,9.2-3,13.9-3
			c7.4,1,11.1,9.5,11.1,25.3v31.7c0,11.8-3.3,20.8-9.8,26.9c-6.5,6.1-18.1,9.2-34.7,9.2c-12.8-0.2-22.7-2.8-29.5-7.8
			c-6.8-5-10.3-12.1-10.3-21.4c0.3-5.7,2.1-10.3,5.5-13.8c3.4-3.4,6.9-5.9,10.6-7.2c3.7-1.4,6.1-2.1,7.4-2.1c-3,0-7-0.9-12-2.6
			c-5-1.7-8.3-5-10.1-9.9c-0.6-1.6-0.9-3.4-0.9-5.5c0-3.7,1.1-7.3,3.2-10.7c2.1-3.4,4.7-6.1,7.8-7.9c4.2-2.7,9.4-4.1,15.8-4.1
			c6.9,0,11.9,1.6,14.9,4.8c2.2,2.1,3.2,4.9,3.2,8.5c0,4.1-1.9,6.2-5.8,6.5c-1.2,0-2.1-0.1-2.7-0.4c-0.6-0.3-1.4-0.9-2.4-1.7
			c-1-0.8-2-1.4-2.8-1.7c-0.8-0.4-2-0.5-3.5-0.5c-4,0.3-6,3.3-6,9c0.1,2.5,1.5,4.6,4.1,6.4c2.7,1.7,5.6,2.8,8.9,3.1
			c2.8,0,5.8-0.4,8.9-1.2c3.1-0.8,5.1-1.2,6-1.2c0.3,0,1,0.2,1.9,0.4c2,1,3,2.7,3,5.1c0,1.1-0.4,2.2-1.1,3.2c-0.3,0.3-2.3,0.9-6,1.9
			c-3.8,0.9-7.4,2.2-10.9,3.7c-3.5,1.5-6.6,3.8-9.3,6.9c-2.7,3.1-4,7-4,11.9c0,9.9,6.4,14.8,19.1,14.8c5.7-0.1,9.9-1.3,12.6-3.5
			c2.7-2.2,4.3-4.9,4.9-8c0.6-3.1,0.9-7.3,0.9-12.4V418.1z"/>
		<path d="M2223.4,365.8c0.1,1.4,1.3,2.3,3.6,2.7c2.3,0.4,3.7,1.1,4,1.9c0.3,0.9,0.5,1.6,0.5,2.1c0,4-4.4,6-13.3,6
			c-5,0-9-1.2-12.1-3.7c-3.1-2.5-4.6-5.8-4.6-10.1c0.5-3.3,1.8-5.7,4-7.5c2.2-1.7,4.5-2.9,7-3.6c2.5-0.7,6.5-1.5,11.8-2.6
			c8.1-1.6,12.1-4.1,12.1-7.4v-1c0-1,0.6-1.6,1.9-1.6c1.8,0,3.2,0.7,4.3,2.2c1,1.5,1.5,3.2,1.5,5.1c0,0.8-0.2,1.6-0.5,2.5
			c-1,2.7-2.5,4.8-4.5,6.3c-2,1.6-5.1,2.8-9.3,3.5c-2.5,0.4-4.2,1-5.1,1.7C2223.8,363.4,2223.4,364.4,2223.4,365.8z"/>
		<path d="M2356.2,463.7v-51.1c0-1.9-0.2-3.4-0.6-4.4c-0.4-1-1.1-1.8-1.9-2.6s-1.5-1.5-1.8-2c-0.3-0.5-0.5-1.5-0.5-2.8
			c0-3.4,3-5.1,9-5.1c0.8,0,2,0,3.7,0.1c1.7,0.1,3,0.1,3.9,0.1h7.2c3.3,0,5.7,0.3,7.2,0.9c1.5,0.6,2.3,1.9,2.3,4
			c0,1.7-0.3,2.9-0.7,3.5c-0.5,0.7-1.1,1.3-2,1.9c-0.9,0.6-1.5,1.2-2,2c-0.4,0.7-0.6,2-0.6,3.9V465c0,1.9,0.5,3.3,1.5,4.2
			c1,0.9,2.5,1.8,4.5,2.6c2,0.8,3.4,1.6,4.4,2.3c1,0.8,1.4,1.9,1.4,3.5c-0.3,2.2-2.7,4.6-7.3,7.1c-4.6,2.5-9.9,3.7-16,3.7
			c-3.5-0.2-6.4-2.5-8.5-6.7C2357.3,477.5,2356.2,471.5,2356.2,463.7z"/>
		<path d="M2431.6,440.8c-3.3,1.9-4.9,6.2-4.9,12.7c0,6.1,1.2,10.9,3.5,14.5c3.5,4.6,8.5,6.9,14.9,6.9c6.7,0,11.9-2.8,15.8-8.3
			c3-4.8,4.4-12.6,4.4-23.5c0-13.6-2.7-23.2-8.1-28.8c-3.8-3.7-9-5.5-15.6-5.5c-5.6,0-9.8,1.2-12.6,3.7c-0.8,0.6-1.8,1.6-3.1,3
			c-1.3,1.4-2.4,2.4-3.3,3.1c-0.9,0.7-2.2,1.4-3.9,2.1c-0.8,0.3-2,0.4-3.7,0.4c-5.3,0-7.9-3.2-7.9-9.7c1.2-5,5.1-9,11.7-11.8
			c6.6-2.9,14.7-4.3,24.1-4.3c15,0,26.3,3.8,33.9,11.4c7.6,7.6,11.5,17.9,11.7,31c0,16.5-3.3,29.1-10,37.7
			c-6.6,8.7-17.5,13-32.6,13.1c-12.8,0-23-2.9-30.8-8.6c-7.8-5.8-11.8-14.2-12-25.4c0-10.1,2.8-17.5,8.3-22.3
			c5.5-4.8,12.2-7.2,19.9-7.2c1.2,0,3.1,0.2,5.6,0.4c3.5,0.5,6.3,1.9,8.3,4c2.1,2.2,3.1,4.5,3.1,7c0,2-0.6,3.6-1.9,4.8
			c-1.7,1.7-3.3,2.5-4.7,2.5c-1.1,0-2.4-0.7-4.1-2c-1.7-1.3-3-2-4-2C2433,440.2,2432.3,440.4,2431.6,440.8z"/>
		<path d="M2510.2,463.7v-51.1c0-1.9-0.2-3.4-0.6-4.4c-0.4-1-1.1-1.8-1.9-2.6s-1.5-1.5-1.8-2c-0.3-0.5-0.5-1.5-0.5-2.8
			c0-3.4,3-5.1,9-5.1c0.8,0,2,0,3.7,0.1c1.7,0.1,3,0.1,3.9,0.1h7.2c3.3,0,5.7,0.3,7.2,0.9c1.5,0.6,2.3,1.9,2.3,4
			c0,1.7-0.3,2.9-0.7,3.5c-0.5,0.7-1.1,1.3-2,1.9c-0.9,0.6-1.5,1.2-2,2c-0.4,0.7-0.6,2-0.6,3.9V465c0,1.9,0.5,3.3,1.5,4.2
			c1,0.9,2.5,1.8,4.5,2.6c2,0.8,3.4,1.6,4.4,2.3c1,0.8,1.4,1.9,1.4,3.5c-0.3,2.2-2.7,4.6-7.3,7.1c-4.6,2.5-9.9,3.7-16,3.7
			c-3.5-0.2-6.4-2.5-8.5-6.7C2511.3,477.5,2510.2,471.5,2510.2,463.7z"/>
		<path d="M2585.6,440.8c-3.3,1.9-4.9,6.2-4.9,12.7c0,6.1,1.2,10.9,3.5,14.5c3.5,4.6,8.5,6.9,14.9,6.9c6.7,0,11.9-2.8,15.8-8.3
			c3-4.8,4.4-12.6,4.4-23.5c0-13.6-2.7-23.2-8.1-28.8c-3.8-3.7-9-5.5-15.6-5.5c-5.6,0-9.8,1.2-12.6,3.7c-0.8,0.6-1.8,1.6-3.1,3
			c-1.3,1.4-2.4,2.4-3.3,3.1c-0.9,0.7-2.2,1.4-3.9,2.1c-0.8,0.3-2,0.4-3.7,0.4c-5.3,0-7.9-3.2-7.9-9.7c1.2-5,5.1-9,11.7-11.8
			c6.6-2.9,14.7-4.3,24.1-4.3c15,0,26.3,3.8,33.9,11.4c7.6,7.6,11.5,17.9,11.7,31c0,16.5-3.3,29.1-10,37.7
			c-6.6,8.7-17.5,13-32.6,13.1c-12.8,0-23-2.9-30.8-8.6c-7.8-5.8-11.8-14.2-12-25.4c0-10.1,2.8-17.5,8.3-22.3
			c5.5-4.8,12.2-7.2,19.9-7.2c1.2,0,3.1,0.2,5.6,0.4c3.5,0.5,6.3,1.9,8.3,4c2.1,2.2,3.1,4.5,3.1,7c0,2-0.6,3.6-1.9,4.8
			c-1.7,1.7-3.3,2.5-4.7,2.5c-1.1,0-2.4-0.7-4.1-2c-1.7-1.3-3-2-4-2C2587,440.2,2586.3,440.4,2585.6,440.8z"/>
		<path d="M2718.9,397.4c0.8-0.1,1.9-0.5,3.2-1.1c1.3-0.6,2.3-1.4,2.9-2.6c0.6-1.1,0.9-3.2,0.9-6.5c0.2-2.3,4.3-3.4,12.1-3.4
			c3.5,0,6.7,0.3,9.5,1c2.8,0.7,4.4,1.6,4.7,2.8c0,5.4-1.5,9.5-4.4,12.4c-4.4,4.3-8.4,6.5-12.1,6.5c0.4,0,1.5,1.1,3.3,3.2
			c1.8,2.1,3,4.4,3.7,6.9c1.4,4.7,2.1,9.8,2.1,15.2v32.2c0,4.6,0.3,8,0.9,10.1c0.3,0.9,1,1.8,2.2,2.6c1.2,0.8,2,1.5,2.5,2
			c0.5,0.5,0.7,1.5,0.7,3c0,2.4-1.1,4.1-3.2,5c-2.2,1-6.3,1.4-12.3,1.4c-5.6,0-9.4-0.8-11.2-2.4c-1.8-1.6-2.8-5-2.8-10v-36.1
			c-2,0-6.2,0.5-12.4,1.4c-6.2,0.9-11.6,2.4-16.2,4.4c-6.2,2.8-9.3,7.6-9.3,14.5c0,3.3,0.8,6.2,2.4,8.7c1.6,2.5,3.6,3.7,6,3.7
			c2.2,0,4-0.6,5.4-1.7c1.4-1.1,2.5-1.8,3.3-2c1.5-0.3,2.5-0.4,3-0.4c2.2,0,4,0.7,5.2,2.1c1.2,1.4,1.8,3.1,1.8,5.3
			c0,1.5-0.2,2.8-0.7,3.9c-1.2,2.8-3.7,4.9-7.6,6.5c-3.9,1.6-8.3,2.4-13.1,2.5c-8.3,0-15.2-2.2-20.8-6.7c-5.5-4.5-8.3-11-8.3-19.6
			c0-2.1,0.1-3.8,0.2-5.1c1.1-7.5,4.2-13.1,9.4-16.8c5.2-3.7,12.1-6.8,20.8-9.2c5.1-1.5,10.8-2.6,17-3.3c6.2-0.7,10.9-1.1,14-1.1
			c0-5.3-1.3-9.6-4-12.9c-2.7-3.3-8.2-5-16.6-5c-6.3,0.2-10.2,0.9-11.8,2.2c-1.6,1.3-3.6,3.7-6.2,7.1c-2.5,3.4-5.6,5.3-9.3,5.9
			c-3.2,0-5.7-0.9-7.5-2.7c-1.8-1.8-2.7-4-2.7-6.5c0-1.9,0.5-3.7,1.4-5.3c1.8-3.2,4.7-5.9,8.8-8.1c4.1-2.2,8.5-3.7,13.4-4.7
			c4.8-1,9.4-1.5,13.7-1.5c4.6,0,9,0.3,13.1,1c3.6,0.6,5.4,1,5.4,1.1H2718.9z"/>
		<path d="M2769.5,463.7v-51.1c0-1.9-0.2-3.4-0.6-4.4c-0.4-1-1.1-1.8-1.9-2.6s-1.5-1.5-1.8-2c-0.3-0.5-0.5-1.5-0.5-2.8
			c0-3.4,3-5.1,9-5.1c0.8,0,2,0,3.7,0.1c1.7,0.1,3,0.1,3.9,0.1h7.2c3.3,0,5.7,0.3,7.2,0.9c1.5,0.6,2.3,1.9,2.3,4
			c0,1.7-0.3,2.9-0.7,3.5c-0.5,0.7-1.1,1.3-2,1.9c-0.9,0.6-1.5,1.2-2,2c-0.4,0.7-0.6,2-0.6,3.9V465c0,1.9,0.5,3.3,1.5,4.2
			c1,0.9,2.5,1.8,4.5,2.6c2,0.8,3.4,1.6,4.4,2.3c1,0.8,1.4,1.9,1.4,3.5c-0.3,2.2-2.7,4.6-7.3,7.1c-4.6,2.5-9.9,3.7-16,3.7
			c-3.5-0.2-6.4-2.5-8.5-6.7C2770.6,477.5,2769.5,471.5,2769.5,463.7z M2814.6,463.7v-51.1c0-1.9-0.2-3.4-0.6-4.4
			c-0.4-1-1.1-1.8-1.9-2.6c-0.9-0.8-1.5-1.5-1.8-2c-0.3-0.5-0.5-1.5-0.5-2.8c0-3.4,3-5.1,9.1-5.1c0.8,0,2,0,3.7,0.1
			c1.7,0.1,3,0.1,3.9,0.1h7.2c3.3,0,5.7,0.3,7.2,0.9c1.6,0.6,2.3,1.9,2.3,4c0,1.7-0.3,2.9-0.7,3.5c-0.5,0.7-1.1,1.3-2,1.9
			c-0.9,0.6-1.5,1.2-2,2c-0.4,0.7-0.6,2-0.6,3.9V465c0,1.9,0.5,3.3,1.5,4.2c1,0.9,2.5,1.8,4.5,2.6c2,0.8,3.4,1.6,4.4,2.3
			c1,0.8,1.4,1.9,1.4,3.5c-0.3,2.2-2.7,4.5-7.4,7c-4.6,2.5-10,3.8-15.9,3.8c-3.6-0.2-6.4-2.5-8.6-6.7
			C2815.7,477.5,2814.6,471.5,2814.6,463.7z"/>
		<path d="M2888.8,440.8c-3.3,1.9-4.9,6.2-4.9,12.7c0,6.1,1.2,10.9,3.5,14.5c3.5,4.6,8.5,6.9,14.9,6.9c6.7,0,11.9-2.8,15.8-8.3
			c3-4.8,4.4-12.6,4.4-23.5c0-13.6-2.7-23.2-8.1-28.8c-3.8-3.7-9-5.5-15.6-5.5c-5.6,0-9.8,1.2-12.6,3.7c-0.8,0.6-1.8,1.6-3.1,3
			c-1.3,1.4-2.4,2.4-3.3,3.1c-0.9,0.7-2.2,1.4-3.9,2.1c-0.8,0.3-2,0.4-3.7,0.4c-5.3,0-7.9-3.2-7.9-9.7c1.2-5,5.1-9,11.7-11.8
			c6.6-2.9,14.7-4.3,24.1-4.3c15,0,26.3,3.8,33.9,11.4c7.6,7.6,11.5,17.9,11.7,31c0,16.5-3.3,29.1-10,37.7
			c-6.6,8.7-17.5,13-32.6,13.1c-12.8,0-23-2.9-30.8-8.6c-7.8-5.8-11.8-14.2-12-25.4c0-10.1,2.8-17.5,8.3-22.3
			c5.5-4.8,12.2-7.2,19.9-7.2c1.2,0,3.1,0.2,5.6,0.4c3.5,0.5,6.3,1.9,8.3,4c2.1,2.2,3.1,4.5,3.1,7c0,2-0.6,3.6-1.9,4.8
			c-1.7,1.7-3.3,2.5-4.7,2.5c-1.1,0-2.4-0.7-4.1-2c-1.7-1.3-3-2-4-2C2890.2,440.2,2889.5,440.4,2888.8,440.8z"/>
		<path d="M3023.6,426.8c0-5.3-1.4-9.6-4.1-12.9c-2.7-3.3-8.3-5-16.7-5c-6.2,0.2-10.2,0.9-11.8,2.3c-1.7,1.3-3.7,3.7-6.2,7.1
			c-2.5,3.4-5.5,5.3-9.1,5.8c-3.1,0-5.6-0.9-7.5-2.7c-1.8-1.8-2.8-4-2.8-6.5c0-1.9,0.5-3.6,1.4-5.3c2.8-4.9,7.5-8.5,14.1-10.8
			c6.6-2.3,13.9-3.5,21.7-3.5c29.5,0,44.2,9.9,44.2,29.7v39.1c0,4.5,0.3,7.8,1,10.1c0.3,0.8,1,1.6,2.2,2.4c1.1,0.8,2,1.4,2.4,2
			c0.5,0.6,0.7,1.6,0.7,3.2c0,2.4-1.1,4.1-3.2,5c-2.2,1-6.3,1.4-12.4,1.4c-3.8,0-6.6-0.3-8.6-1c-2-0.7-3.4-1.9-4.1-3.6
			c-0.8-1.7-1.2-4.3-1.2-7.8v-36.1c-2,0-6.1,0.5-12.4,1.4c-6.2,0.9-11.7,2.4-16.2,4.4c-6.2,2.7-9.3,7.6-9.3,14.5
			c0,3.3,0.8,6.2,2.4,8.7c1.6,2.5,3.6,3.7,5.9,3.7c2.2,0,4-0.6,5.4-1.7c1.4-1.1,2.5-1.8,3.3-2c1.6-0.3,2.6-0.4,3-0.4
			c2.2,0,4,0.7,5.2,2.1c1.2,1.4,1.8,3.1,1.8,5.3c0,1.5-0.2,2.8-0.7,3.9c-1.2,2.8-3.7,4.9-7.6,6.5c-3.9,1.6-8.3,2.4-13.1,2.5
			c-5.4,0-10.3-1-14.7-2.9c-4.4-1.9-7.9-4.9-10.5-8.8c-2.6-4-3.9-8.8-3.9-14.5c0-2.1,0.1-3.8,0.2-5.1c1.1-7.5,4.2-13.1,9.4-16.8
			c5.2-3.7,12.1-6.8,20.9-9.2c5.2-1.5,10.8-2.6,17-3.3C3015.7,427.2,3020.4,426.8,3023.6,426.8z"/>
		<path d="M3164.3,440.6c0-4.2,2.4-7.7,7.2-10.7c4.8-3,9.3-4.5,13.4-4.5c7.7,0,12.5,7.6,14.2,22.8c0.9,7.9,1.5,13.3,1.9,16.1
			c0.4,2.8,1.2,5.2,2.5,7.4c1.2,2.1,3.1,3.3,5.6,3.5c4.4,0,7.6-3,9.8-9c2.2-6,3.4-14.1,3.5-24.1c0-7.9-0.3-14-1-18.3
			c-0.6-4.3-2.4-7.9-5.1-10.7c-2.8-2.8-7.3-4.4-13.4-4.6c-8.2,0-14.3,0.9-18.3,2.8c-4,1.9-7.7,4.3-11.1,7.2c-3.4,3-6.2,4.4-8.5,4.4
			c-3.3-0.2-4.9-2.8-4.9-7.6c0-2.5,0.7-4.9,2.1-6.9c3.1-4.4,8.2-7.8,15.5-10.1c7.3-2.3,15.8-3.5,25.6-3.5c9.7,0.1,17.5,1.3,23.3,3.7
			c5.8,2.3,10.1,5.4,12.7,9.2c2.6,3.8,4.3,7.7,5,11.7c0.7,4,1.1,8.9,1.4,14.8c0,0.6,0,1.5,0.1,2.7c0.1,1.2,0.1,2.2,0.1,2.8
			c0,14-2.7,25.7-8.2,34.9c-5.5,9.2-14.8,13.9-27.8,14.1c-9.6,0-16.5-1.4-20.9-4.1c-4.3-2.7-7.1-7.4-8.2-14.1
			c-0.3-1.8-0.8-5.2-1.4-10.4c-0.7-5.2-1.3-8.8-1.9-10.8c-0.6-2.1-1.6-3.6-2.9-4.6c-0.9-0.7-2.8-1.3-5.6-1.8
			C3166.1,442.5,3164.6,441.7,3164.3,440.6z"/>
		<path d="M3228.5,379.9c-7.6,0-13.6-1.8-17.8-5.5c-4.2-3.6-6.4-8-6.4-13c0-4.9,2-9.1,6.1-12.6c4.1-3.5,9.7-5.3,17-5.3
			c7.7,0,13.7,1.8,18,5.5c4.3,3.7,6.4,8,6.4,12.9c0,4.9-2,9.1-6.1,12.6C3241.6,378.1,3235.9,379.9,3228.5,379.9z M3227.8,354.8
			c-2.6,0-4.6,0.7-6.1,2.1c-1.5,1.4-2.2,3-2.2,4.8c0,1.8,0.7,3.3,2.2,4.6c1.4,1.3,3.5,1.9,6.2,1.9c2.8,0,4.9-0.6,6.4-1.9
			c1.5-1.3,2.2-2.9,2.2-4.7c0-1.8-0.7-3.3-2.2-4.7C3232.7,355.4,3230.6,354.8,3227.8,354.8z M3272.9,429.6c-3.6,0-7-1.2-10.2-3.7
			c-3.1-2.4-4.7-5.7-4.7-9.7c0.2-4.5,4-9.3,11.4-14.3c6.9-4.8,16.1-7.1,27.7-7.1c10.9,0,19.6,2,26.3,6c6,3.6,9.7,7.4,11.2,11.3
			c1.5,3.9,2.2,8.8,2.2,14.6v45.1c0,1.8,0.2,3.1,0.6,3.8c0.4,0.7,1,1.4,1.8,1.9c0.8,0.6,1.4,1.2,1.8,1.9c0.4,0.7,0.6,1.9,0.6,3.6
			c-0.1,1.9-0.9,3.2-2.5,3.8c-1.6,0.7-3.9,1-7,1h-6.5c-0.9,0-2.2,0-3.9,0.1c-1.7,0.1-3,0.1-3.7,0.1c-3,0-5.2-0.3-6.8-1
			c-1.5-0.7-2.3-2-2.3-4c0-1.4,0.2-2.4,0.6-3c0.4-0.6,1-1.3,1.8-2c0.8-0.7,1.4-1.6,1.8-2.5c0.4-0.9,0.6-2.4,0.6-4.3v-43.3
			c0-6.4-1.1-11.2-3.4-14.6c-2.3-3.3-7.3-5-15.2-5c-6.7,0-11.2,1.3-13.6,3.9c-2.4,2.6-4.1,6-5,10.1
			C3275.5,426.9,3274.3,429.2,3272.9,429.6z"/>
		<path d="M3443.9,471.9c0,1.8,0.2,3,0.6,3.8c0.4,0.8,1,1.4,1.9,2c0.9,0.6,1.6,1.2,2.1,1.9c0.5,0.7,0.8,1.9,0.8,3.6
			c0,2-0.8,3.3-2.3,3.9c-1.6,0.6-4,0.9-7.2,0.9h-7.2c-0.8,0-2.1,0-3.9,0.1c-1.8,0.1-3,0.1-3.8,0.1c-3,0-5.2-0.3-6.8-1
			c-1.5-0.7-2.3-2-2.3-4c0-1.4,0.2-2.4,0.6-3c0.4-0.6,1-1.3,1.8-2c0.8-0.7,1.4-1.6,1.8-2.5c0.4-0.9,0.6-2.4,0.6-4.3v-43.3
			c0-4.4-0.3-7.8-0.9-10.4c-0.6-2.5-2.2-4.7-4.9-6.4c-2.7-1.7-6.9-2.6-12.8-2.8c-3.8,0-7.2,0.4-10.2,1.3c-3,0.9-5.2,2-6.8,3.3
			c-1.6,1.3-2.3,2.6-2.3,3.8c0,0.7,0.3,1.3,1,1.8c0.7,0.5,1.9,1.3,3.7,2.3c1.8,1,3.2,2,4.1,2.8c0.9,0.9,1.4,1.9,1.4,3
			c0,1.3-1.2,3-3.6,5.1c-2.4,2.1-4.1,3.6-5,4.7c-0.9,1.1-1.4,2.9-1.4,5.4v29.7c0,1.8,0.2,3.1,0.6,3.9c0.4,0.8,1.1,1.4,1.9,2
			c0.9,0.6,1.5,1.2,2,1.9c0.5,0.7,0.7,1.9,0.8,3.5c0,2-0.8,3.3-2.3,3.9c-1.5,0.6-3.9,0.9-7.2,0.9h-7.2c-0.9,0-2.2,0-3.9,0.1
			c-1.7,0.1-3,0.1-3.8,0.1c-3,0-5.2-0.3-6.8-1c-1.5-0.7-2.3-2-2.3-4c0-1.4,0.2-2.4,0.6-3c0.4-0.6,1-1.3,1.8-2
			c0.8-0.7,1.4-1.6,1.8-2.5c0.4-0.9,0.6-2.4,0.6-4.3v-26.9c0-3.4,0.7-6,2-7.9c1.3-1.8,3-3.6,5.1-5.3c2.1-1.7,3.1-3,3.1-3.9
			c0-0.9-1.3-2.1-4-3.5c-2.7-1.4-4.6-2.6-5.7-3.4c-1.1-0.8-1.7-2.1-1.7-4c0-4.8,4.6-9.9,13.7-15.2c7.8-4.5,17.9-6.7,30.2-6.7
			c11.7,0,21.1,2,28,6c6,3.6,9.7,7.4,11.2,11.3c1.5,3.9,2.2,8.8,2.2,14.6V471.9z"/>
		<path d="M3422.3,357.6c1.2,2.7,5.9,4.1,13.9,4.1c8.3,0,14.9-1.1,20.1-3.4c2.5-1.2,4.7-2.4,6.4-3.6c1.7-1.2,3.5-2.5,5.3-4
			c1.8-1.5,3.2-2.5,4.1-3.2c1-0.7,1.9-1,2.7-1c1.1,0.5,1.6,3.4,1.6,8.8c0,3.4-0.4,5.7-1.2,6.9c-1,1.6-3.4,3.4-7,5.4
			c-3.7,2-8.5,3.7-14.4,5.2c-5.9,1.4-12.6,2.2-20.2,2.2c-3,0-5.2-0.1-6.8-0.2c-7.5-0.5-14.7-2.2-21.6-5.2
			c-6.9-2.9-10.3-6.9-10.3-11.9c0-0.5,0.2-1.3,0.5-2.5c0.8-2.9,3.4-5.3,7.8-7.1c4.4-1.8,8.8-2.7,13.2-2.7c3.2,0,5.4,0.5,6.5,1.6
			c0.8,0.8,1.1,1.6,1.1,2.5c0,0.6-0.3,1.8-0.9,3.5C3422.6,354.6,3422.3,356.2,3422.3,357.6z"/>
		<path d="M3508.1,408.6c-14.2,0.2-22.1,8-23.7,23.5c-0.2,1.4-0.2,3.6-0.2,6.6c0,6.1,0.6,12.3,1.8,18.6c1.2,6.2,2.6,10.4,4,12.5
			c0.5-0.6,1.3-2.1,2.6-4.4c1.2-2.3,2.6-5.2,3.9-8.7c3.6-8.8,5.4-15.1,5.4-18.7c0-1-0.3-1.9-1-2.5c-0.6-0.6-1.6-1.3-2.8-1.9
			c-1.2-0.6-2.1-1.1-2.6-1.5c-0.6-0.4-0.9-1-0.9-1.6c0-2.2,1.8-4,5.5-5.5c3.7-1.4,8-2.1,12.8-2.1c5.8,1,8.9,4.8,9.1,11.5
			c0,2.5-0.5,5.3-1.4,8.5c-4.1,15.3-9,27.4-14.7,36.4c-2.3,3.7-4.5,6.1-6.6,7.1c-2.1,1.1-4.9,1.6-8.3,1.6h-6.2
			c-4.4,0-7.5-0.3-9.4-0.9c-1.9-0.6-3.7-1.9-5.2-4c-2.2-3.1-4.5-9-6.7-17.9c-2.2-8.9-3.4-17.5-3.4-26c0-9.9,1.6-17.9,4.9-24.2
			c4-7.5,9.3-12.6,16.1-15.5c6.7-2.8,15.2-4.3,25.4-4.6c18.9,0,32.3,3.7,40.2,11.1c3.6,3.2,5.9,6.7,6.9,10.7c1,3.9,1.5,8.7,1.5,14.4
			v40.7c0,1.8,0.2,3,0.6,3.8c0.4,0.8,1,1.4,1.9,2c0.9,0.6,1.6,1.2,2,1.9c0.5,0.7,0.7,1.9,0.8,3.6c0,2-0.8,3.3-2.3,3.9
			c-1.6,0.6-4,0.9-7.2,0.9h-7.2c-0.9,0-2.2,0-3.9,0.1c-1.7,0.1-3,0.1-3.7,0.1c-6.1,0-9.1-1.7-9.1-5.1c0-1.4,0.2-2.4,0.6-3
			c0.4-0.6,1-1.3,1.8-2c0.8-0.7,1.4-1.6,1.8-2.5c0.4-0.9,0.6-2.4,0.6-4.3v-37.5c0-7.7-1.6-13.9-4.9-18.4
			C3523.7,410.9,3517.4,408.6,3508.1,408.6z"/>
	</g>
</g>
</svg>